<?xml version="1.0" standalone="no"?>
<!DOCTYPE svg PUBLIC "-//W3C//DTD SVG 20010904//EN"
 "http://www.w3.org/TR/2001/REC-SVG-20010904/DTD/svg10.dtd">
<svg version="1.0" xmlns="http://www.w3.org/2000/svg"
 width="256.000000pt" height="256.000000pt" viewBox="0 0 256.000000 256.000000"
 preserveAspectRatio="xMidYMid meet">
<metadata>
Created by potrace 1.11, written by Peter Selinger 2001-2013
</metadata>
<g transform="translate(0.000000,256.000000) scale(0.100000,-0.100000)"
fill="#000000" stroke="none">
<path d="M0 1328 l0 -1233 685 685 c377 377 685 686 685 687 0 2 -53 3 -118 3
l-119 0 -13 -100 -13 -100 -163 0 -163 0 5 28 c3 15 65 275 138 577 l131 550
195 3 195 2 85 -351 c46 -193 87 -352 90 -354 4 -2 195 185 426 416 l419 419
-1233 0 -1232 0 0 -1232z m900 972 l0 -130 -115 0 -115 0 0 -450 0 -450 -155
0 -155 0 0 450 0 450 -110 0 -110 0 0 130 0 130 380 0 380 0 0 -130z"/>
<path d="M2103 2028 l-452 -453 34 -135 c19 -74 35 -143 35 -152 0 -16 -14
-18 -160 -18 -151 0 -161 1 -168 20 -6 17 -107 -80 -662 -635 l-655 -655 1243
0 1242 0 0 1240 c0 682 -1 1240 -3 1240 -1 0 -206 -204 -454 -452z m-8 -742
c73 -19 108 -40 149 -88 41 -48 68 -126 70 -202 l1 -51 -141 -3 -141 -3 -6 46
c-4 25 -14 59 -22 75 -14 26 -21 30 -60 30 -57 0 -85 -32 -85 -98 0 -67 44
-105 199 -172 97 -43 137 -66 182 -107 83 -77 104 -130 104 -263 0 -100 -2
-109 -33 -173 -38 -77 -92 -123 -177 -153 -73 -25 -291 -31 -375 -10 -138 36
-211 129 -214 273 l-1 78 145 0 145 0 8 -55 c10 -72 36 -100 93 -100 72 0 110
66 84 144 -15 47 -57 78 -170 126 -126 54 -171 82 -218 136 -59 66 -75 123
-70 247 5 118 26 179 86 240 69 72 139 95 292 96 58 0 127 -5 155 -13z"/>
<path d="M1247 2140 c-3 -8 -20 -100 -37 -205 -17 -104 -34 -200 -37 -212 -5
-22 -3 -23 76 -23 l82 0 -6 33 c-3 17 -21 120 -39 227 -18 107 -36 188 -39
180z"/>
</g>
</svg>
